# xmcd
#
# Track frame offsets:
#	150
#	18798
#	39096
#	56319
#	77067
#	95415
#	120813
#	142686
#	165459
#	183732
#	208830
#	230253
#	248526
#	273549
#
# Disc length: 4009 seconds
#
# Revision: 1
# Processed by: cddbd v1.5.2PL0 Copyright (c) Steve Scherf et al.
# Submitted via: audiograbber 1.83.01
#
DISCID=a10fa70e
DTITLE=Kenny Chesney - Live: Live Those Songs Again
DYEAR=1900
DGENRE=
TTITLE0=Live Those Songs
TTITLE1=Young
TTITLE2=Never Gonna Feel Like That Again
TTITLE3=Beer in Mexico
TTITLE4=Keg in the Closet
TTITLE5=What I Need To Do
TTITLE6=I Go Back
TTITLE7=When The Sun Goes Down (Duet With Uncle Kracker)
TTITLE8=On The Coast Of Somewhere Beautiful
TTITLE9=Anything But Mine
TTITLE10=Back Where I Come From
TTITLE11=Don't Happen Twice
TTITLE12=How Forever Feels
TTITLE13=She Thinks My Tractor's Sexy
EXTD=
EXTT0=
EXTT1=
EXTT2=
EXTT3=
EXTT4=
EXTT5=
EXTT6=
EXTT7=
EXTT8=
EXTT9=
EXTT10=
EXTT11=
EXTT12=
EXTT13=
PLAYORDER=
